<svg width="43" height="50" viewBox="0 0 43 50" fill="none" xmlns="http://www.w3.org/2000/svg">
<path d="M35.879 10.0318C34.2063 10.0335 32.6027 10.6273 31.4202 11.6829C30.2375 12.7386 29.5722 14.1699 29.5707 15.6627V29.6883C29.5884 30.6921 29.3823 31.6887 28.9643 32.6205C28.5462 33.5523 27.9247 34.4005 27.1358 35.1159C26.3468 35.8313 25.4063 36.3994 24.369 36.7872C23.3317 37.1749 22.2183 37.3746 21.0938 37.3746C19.9691 37.3746 18.8558 37.1749 17.8185 36.7872C16.7812 36.3994 15.8407 35.8313 15.0518 35.1159C14.2629 34.4005 13.6413 33.5523 13.2233 32.6205C12.8052 31.6887 12.5991 30.6921 12.6168 29.6883V15.6627C12.6168 14.1695 11.9522 12.7374 10.7692 11.6815C9.58609 10.6256 7.98151 10.0324 6.30842 10.0324C4.63533 10.0324 3.03075 10.6256 1.84769 11.6815C0.66463 12.7374 0 14.1695 0 15.6627V31.1734C-8.25545e-08 33.6457 0.545603 36.0939 1.60566 38.3781C2.66573 40.6623 4.21949 42.7376 6.17822 44.4859C8.13694 46.2341 10.4623 47.6208 13.0215 48.567C15.5807 49.513 18.3237 50 21.0938 50C23.8638 50 26.6068 49.513 29.166 48.567C31.7253 47.6208 34.0505 46.2341 36.0092 44.4859C37.9681 42.7376 39.5218 40.6623 40.5817 38.3781C41.6419 36.0939 42.1875 33.6457 42.1875 31.1734V15.6627C42.1857 14.1699 41.5206 12.7386 40.3379 11.6829C39.1552 10.6273 37.5516 10.0335 35.879 10.0318ZM39.4275 31.1722C39.4275 35.5121 37.4958 39.6741 34.0576 42.7428C30.6194 45.8114 25.9562 47.5355 21.0938 47.5355C16.2313 47.5355 11.5681 45.8114 8.12981 42.7428C4.69156 39.6741 2.75996 35.5121 2.75996 31.1722V15.6627C2.76804 14.8275 3.14543 14.029 3.81004 13.4409C4.47462 12.8528 5.37257 12.5229 6.30842 12.5229C7.24427 12.5229 8.14222 12.8528 8.80681 13.4409C9.47139 14.029 9.8488 14.8275 9.85689 15.6627V29.6883C9.85689 32.3483 11.0408 34.8993 13.1481 36.7801C15.2554 38.661 18.1135 39.7175 21.0938 39.7175C24.074 39.7175 26.9322 38.661 29.0395 36.7801C31.1466 34.8993 32.3306 32.3483 32.3306 29.6883V15.6627C32.3306 14.8228 32.7043 14.0172 33.3699 13.4233C34.0355 12.8293 34.9379 12.4957 35.879 12.4957C36.8202 12.4957 37.7227 12.8293 38.3883 13.4233C39.0536 14.0172 39.4275 14.8228 39.4275 15.6627V31.1722Z" fill="url(#paint0_linear)"/>
<path d="M19.7138 12.9024V29.1401C19.7138 29.4668 19.8592 29.78 20.118 30.0111C20.3768 30.2421 20.7278 30.3717 21.0938 30.3717C21.4597 30.3717 21.8108 30.2421 22.0696 30.0111C22.3284 29.78 22.4738 29.4668 22.4738 29.1401V12.9024C24.2555 12.596 25.8453 11.7079 26.9327 10.4115C28.0201 9.11511 28.5272 7.50351 28.3547 5.89137C28.1822 4.27923 27.3429 2.78236 26.0002 1.69298C24.6576 0.603617 22.9082 0 21.0938 0C19.2793 0 17.5299 0.603617 16.1873 1.69298C14.8447 2.78236 14.0052 4.27923 13.8328 5.89137C13.6604 7.50351 14.1674 9.11511 15.2549 10.4115C16.3423 11.7079 17.9321 12.596 19.7138 12.9024ZM21.0938 2.46597C21.9906 2.46597 22.8672 2.70332 23.6129 3.14801C24.3586 3.5927 24.9397 4.22475 25.2829 4.96424C25.6261 5.70373 25.7159 6.51745 25.5409 7.30249C25.3659 8.08752 24.934 8.8086 24.2999 9.37457C23.6657 9.94052 22.8578 10.3259 21.9782 10.4821C21.0986 10.6382 20.1869 10.558 19.3584 10.2517C18.5299 9.94533 17.8218 9.4266 17.3235 8.76105C16.8253 8.09551 16.5595 7.31307 16.5595 6.51264C16.5609 5.43975 17.0391 4.41114 17.8891 3.65251C18.7392 2.89388 19.8917 2.46714 21.0938 2.46597Z" fill="url(#paint1_linear)"/>
<defs>
<linearGradient id="paint0_linear" x1="0" y1="30.016" x2="42.1875" y2="30.016" gradientUnits="userSpaceOnUse">
<stop stop-color="#1EECEC"/>
<stop offset="1" stop-color="#2A3EEE"/>
</linearGradient>
<linearGradient id="paint1_linear" x1="13.7998" y1="15.1859" x2="28.3877" y2="15.1859" gradientUnits="userSpaceOnUse">
<stop stop-color="#1EE0EC"/>
<stop offset="1" stop-color="#3A2AEE"/>
</linearGradient>
</defs>
</svg>
